<svg width="35" height="35" viewBox="0 0 35 35" fill="none" xmlns="http://www.w3.org/2000/svg">
<path d="M17.8571 34.1429C27.246 34.1429 34.8571 26.5317 34.8571 17.1429C34.8571 7.75401 27.246 0.142853 17.8571 0.142853C8.46831 0.142853 0.857147 7.75401 0.857147 17.1429C0.857147 26.5317 8.46831 34.1429 17.8571 34.1429Z" fill="#FE724C"/>
<path d="M25.2526 16.0968C25.1738 15.4166 24.8484 14.7855 24.3345 14.3158C23.8206 13.8461 23.1515 13.5682 22.446 13.5316V13.3316C22.4466 12.7627 22.3312 12.1994 22.1063 11.6738C21.8815 11.1482 21.5517 10.6708 21.1359 10.2691C20.7209 9.8662 20.2278 9.54671 19.6851 9.32892C19.1423 9.11112 18.5605 8.99933 17.973 9C16.7871 9.00042 15.6499 9.45699 14.8114 10.2694C13.9728 11.0818 13.5015 12.1836 13.5011 13.3325V13.5347C12.8049 13.5826 12.148 13.8654 11.6447 14.3337C11.1414 14.8021 10.8235 15.4264 10.746 16.0984L10 22.682C10.0037 23.5648 10.3688 24.41 11.0152 25.0321C11.6617 25.6542 12.5367 26.0023 13.4479 26H22.5523C23.4635 26.0023 24.3383 25.6542 24.9848 25.0321C25.6312 24.41 25.9963 23.5648 26 22.682L25.2526 16.0968ZM14.8144 13.3396C14.8142 12.9378 14.8958 12.5398 15.0544 12.1686C15.2131 11.7973 15.4458 11.46 15.739 11.1758C16.0323 10.8916 16.3803 10.6661 16.7635 10.5123C17.1467 10.3585 17.5574 10.2795 17.9722 10.2795C18.3871 10.2791 18.7979 10.358 19.1812 10.5119C19.5644 10.6657 19.9127 10.8912 20.2058 11.1757C20.4996 11.4596 20.7325 11.7968 20.8914 12.1682C21.0503 12.5395 21.132 12.9376 21.1317 13.3396V13.5252H14.8144V13.3396ZM15.4374 17.8403C15.3332 17.8404 15.2299 17.8206 15.1336 17.782C15.0373 17.7434 14.9498 17.6868 14.8761 17.6154C14.8024 17.544 14.744 17.4592 14.7042 17.3659C14.6644 17.2726 14.6439 17.1726 14.644 17.0717C14.6439 16.9707 14.6644 16.8707 14.7042 16.7774C14.744 16.6841 14.8024 16.5993 14.8761 16.5279C14.9498 16.4565 15.0373 16.3999 15.1336 16.3614C15.2299 16.3228 15.3332 16.303 15.4374 16.3031C15.5418 16.3029 15.6452 16.3225 15.7416 16.3611C15.8381 16.3996 15.9258 16.4561 15.9997 16.5275C16.0736 16.5989 16.1323 16.6837 16.1724 16.777C16.2125 16.8704 16.2331 16.9706 16.2332 17.0717C16.2331 17.1728 16.2125 17.2729 16.1724 17.3662C16.1323 17.4596 16.0736 17.5444 15.9997 17.6157C15.9258 17.6871 15.8381 17.7437 15.7416 17.7822C15.6452 17.8207 15.5418 17.8405 15.4374 17.8403ZM20.5644 17.8403C20.46 17.8405 20.3566 17.8207 20.2602 17.7822C20.1637 17.7437 20.076 17.6871 20.0021 17.6157C19.9282 17.5444 19.8695 17.4596 19.8294 17.3662C19.7893 17.2729 19.7687 17.1728 19.7686 17.0717C19.7687 16.9706 19.7893 16.8704 19.8294 16.777C19.8695 16.6837 19.9282 16.5989 20.0021 16.5275C20.076 16.4561 20.1637 16.3996 20.2602 16.3611C20.3566 16.3225 20.46 16.3029 20.5644 16.3031C20.6686 16.303 20.7717 16.3228 20.868 16.3614C20.9643 16.3999 21.052 16.4565 21.1257 16.5279C21.1994 16.5993 21.2578 16.6841 21.2976 16.7774C21.3374 16.8707 21.3579 16.9707 21.3578 17.0717C21.3579 17.1726 21.3374 17.2726 21.2976 17.3659C21.2578 17.4592 21.1994 17.544 21.1257 17.6154C21.052 17.6868 20.9643 17.7434 20.868 17.782C20.7717 17.8206 20.6686 17.8404 20.5644 17.8403Z" fill="white"/>
</svg>
