<svg width="17.250000" height="19.166687" viewBox="0 0 17.25 19.1667" fill="none" xmlns="http://www.w3.org/2000/svg" xmlns:xlink="http://www.w3.org/1999/xlink">
	<desc>
			Created with Pixso.
	</desc>
	<defs/>
	<g opacity="0.400000">
		<path id="Path" d="M12.6414 0L4.60956 0C1.69623 0 0 1.70581 0 4.62872L0 14.5283C0 17.4991 1.69623 19.1667 4.60956 19.1667L12.6414 19.1667C15.6017 19.1667 17.25 17.4991 17.25 14.5283L17.25 4.62872C17.25 1.70581 15.6017 0 12.6414 0Z" fill="#9796A1" fill-opacity="1.000000" fill-rule="nonzero"/>
	</g>
	<path id="Combined Shape" d="M4.86804 4.45599L4.86804 4.46558C4.45496 4.46558 4.12054 4.80096 4.12054 5.21307C4.12054 5.62518 4.45496 5.96057 4.86804 5.96057L7.73248 5.96057C8.14551 5.96057 8.48096 5.62518 8.48096 5.20251C8.48096 4.79138 8.14551 4.45599 7.73248 4.45599L4.86804 4.45599ZM12.3813 10.2923L4.86804 10.2923C4.45496 10.2923 4.12054 9.95685 4.12054 9.5448C4.12054 9.13269 4.45496 8.79633 4.86804 8.79633L12.3813 8.79633C12.7935 8.79633 13.1288 9.13269 13.1288 9.5448C13.1288 9.95685 12.7935 10.2923 12.3813 10.2923ZM12.3815 14.6718L4.86816 14.6718C4.58069 14.7101 4.30273 14.5663 4.14941 14.3268C3.99609 14.0776 3.99609 13.7614 4.14941 13.5218C4.30273 13.2726 4.58069 13.1384 4.86816 13.1672L12.3815 13.1672C12.7639 13.2055 13.0524 13.5314 13.0524 13.9243C13.0524 14.3066 12.7639 14.6334 12.3815 14.6718Z" clip-rule="evenodd" fill="#9796A1" fill-opacity="1.000000" fill-rule="evenodd"/>
</svg>
