<svg width="16.000000" height="17.000000" viewBox="0 0 16 17" fill="none" xmlns="http://www.w3.org/2000/svg" xmlns:xlink="http://www.w3.org/1999/xlink">
	<desc>
			Created with Pixso.
	</desc>
	<defs/>
	<path id="Path 3414" d="M15.2526 7.0968C15.1738 6.41663 14.8484 5.78552 14.3345 5.3158C13.8206 4.84607 13.1515 4.56824 12.446 4.53162L12.446 4.33167C12.4467 3.76276 12.3312 3.19934 12.1063 2.67377C11.8815 2.14819 11.5518 1.67078 11.1359 1.2691C10.7209 0.866211 10.2278 0.546692 9.68506 0.328918C9.14227 0.111145 8.56049 -0.000671387 7.97302 0C6.78711 0.000427246 5.6499 0.45697 4.81134 1.26941C3.97278 2.08179 3.50153 3.18359 3.5011 4.33252L3.5011 4.53467C2.80493 4.58264 2.14801 4.86536 1.64471 5.33368C1.14136 5.80206 0.823486 6.42645 0.745972 7.09839L0 13.682C0.00366211 14.5648 0.368774 15.41 1.01526 16.0321C1.66168 16.6542 2.53674 17.0023 3.44788 17L12.5523 17C13.4634 17.0023 14.3383 16.6542 14.9847 16.0321C15.6312 15.41 15.9963 14.5648 16 13.682L15.2526 7.0968ZM4.81433 4.3396C4.81427 3.93774 4.89575 3.53986 5.05444 3.16858C5.21307 2.7973 5.4458 2.45996 5.73901 2.17578C6.03229 1.8916 6.38031 1.66614 6.76349 1.51233C7.14667 1.35852 7.55743 1.27948 7.97223 1.27948C8.38708 1.27911 8.79785 1.35803 9.18115 1.51184C9.56445 1.66565 9.91272 1.89124 10.2058 2.17572C10.4996 2.45959 10.7325 2.79681 10.8914 3.16815C11.0503 3.53949 11.132 3.93762 11.1317 4.3396L11.1317 4.52521L4.81433 4.52521L4.81433 4.3396ZM5.43744 8.84027C5.33319 8.84039 5.22986 8.82062 5.13361 8.78198C5.03729 8.74341 4.94983 8.68677 4.8761 8.61536C4.80243 8.54395 4.74402 8.45923 4.70422 8.36597C4.66437 8.27264 4.64392 8.17267 4.64404 8.07166C4.64392 7.9707 4.66437 7.87073 4.70422 7.7774C4.74402 7.68414 4.80243 7.5993 4.8761 7.52789C4.94983 7.45648 5.03729 7.39996 5.13361 7.36139C5.22986 7.32275 5.33319 7.30298 5.43744 7.3031C5.54175 7.30286 5.64514 7.32257 5.74164 7.36108C5.83813 7.3996 5.92578 7.45612 5.99969 7.52753C6.07361 7.59888 6.13232 7.68365 6.17242 7.77704C6.21246 7.87042 6.23309 7.97058 6.23315 8.07166C6.23309 8.17279 6.21246 8.27289 6.17242 8.36621C6.13232 8.45959 6.07361 8.54437 5.99969 8.61572C5.92578 8.68713 5.83813 8.74365 5.74164 8.78223C5.64514 8.82074 5.54175 8.84052 5.43744 8.84027ZM10.5644 8.84027C10.46 8.84052 10.3566 8.82074 10.2601 8.78223C10.1637 8.74365 10.076 8.68713 10.0021 8.61572C9.92816 8.54437 9.86945 8.45959 9.82941 8.36621C9.78931 8.27289 9.76874 8.17279 9.76862 8.07166C9.76874 7.97058 9.78931 7.87042 9.82941 7.77704C9.86945 7.68365 9.92816 7.59888 10.0021 7.52753C10.076 7.45612 10.1637 7.3996 10.2601 7.36108C10.3566 7.32257 10.46 7.30286 10.5644 7.3031C10.6686 7.30298 10.7717 7.32275 10.868 7.36139C10.9644 7.39996 11.052 7.45648 11.1257 7.52789C11.1994 7.5993 11.2578 7.68414 11.2976 7.7774C11.3374 7.87073 11.3578 7.9707 11.3577 8.07166C11.3578 8.17267 11.3374 8.27264 11.2976 8.36597C11.2578 8.45923 11.1994 8.54395 11.1257 8.61536C11.052 8.68677 10.9644 8.74341 10.868 8.78198C10.7717 8.82062 10.6686 8.84039 10.5644 8.84027Z" fill="#D5D5D9" fill-opacity="1.000000" fill-rule="nonzero"/>
</svg>
